/* XPM */
static char *_645b47c49eb4fa8f75ca8509f1e88ceBm1Qtr9r2TF054Jx[] = {
/* columns rows colors chars-per-pixel */
"32 32 8 1 ",
"  c None",
". c #2F2F2E",
"X c #3B3B39",
"o c #4F4F4E",
"O c #9D5021",
"+ c #D67941",
"@ c gray72",
"# c white",
/* pixels */
"                                ",
"                                ",
"                                ",
"                                ",
"                                ",
"                                ",
"                                ",
"                                ",
"                                ",
"                                ",
"                                ",
"                                ",
"                                ",
"                                ",
"                                ",
"                                ",
"                                ",
"                  ..            ",
"                 .O.  ...       ",
"                .O#. .O+.       ",
"                .O#.....        ",
"                .OO++++.        ",
"         ...    .OO+.OOO.       ",
"        .+++.  .OOO++++...      ",
"       .+++++. .@@#######.      ",
"      .@@OO++.....@@###..       ",
"      .@@..O.OOOOO.....         ",
"      .@.  .OOOO++++##.         ",
"      ..   .OOO+++O@@..         ",
"           .O....+...O.         ",
"           .X.X..o. .o.         ",
"           .. .  ..  ..         "
};
