/* XPM */
static char * key_xpm[] = {
"40 40 143 2",
"  	c #489848",
". 	c #0E3234",
"+ 	c #533B20",
"@ 	c #3A3A29",
"# 	c #544323",
"$ 	c #363B29",
"% 	c #032934",
"& 	c #36342A",
"* 	c #DEB935",
"= 	c #9D832F",
"- 	c #0F262F",
"; 	c #212127",
"> 	c #1D242A",
", 	c #202329",
"' 	c #061A2D",
") 	c #463522",
"! 	c #9D7323",
"~ 	c #FFDA3A",
"{ 	c #9D8C33",
"] 	c #000724",
"^ 	c #012032",
"/ 	c #4C4526",
"( 	c #855F1E",
"_ 	c #82561C",
": 	c #8B601C",
"< 	c #7E5B1F",
"[ 	c #23352F",
"} 	c #000C2B",
"| 	c #EAC638",
"1 	c #E5B42C",
"2 	c #684F21",
"3 	c #734C1D",
"4 	c #E0A621",
"5 	c #FFDA36",
"6 	c #A99031",
"7 	c #3B3425",
"8 	c #483521",
"9 	c #A67C22",
"0 	c #EBB82B",
"a 	c #DBA827",
"b 	c #E2AD23",
"c 	c #D7A21C",
"d 	c #362922",
"e 	c #644B22",
"f 	c #E1C039",
"g 	c #FACD32",
"h 	c #B17E1D",
"i 	c #412D21",
"j 	c #634720",
"k 	c #C79523",
"l 	c #F4CC37",
"m 	c #A97D20",
"n 	c #B2811D",
"o 	c #DEB32E",
"p 	c #F9D239",
"q 	c #FED535",
"r 	c #C89A26",
"s 	c #AD7D1E",
"t 	c #BF9023",
"u 	c #F2CB38",
"v 	c #EBBE30",
"w 	c #9C721E",
"x 	c #382F25",
"y 	c #19332E",
"z 	c #EEC02A",
"A 	c #FDD02B",
"B 	c #FBE077",
"C 	c #FBF5D7",
"D 	c #FFDF63",
"E 	c #F8C528",
"F 	c #B68E27",
"G 	c #E2BD35",
"H 	c #B39934",
"I 	c #E1BF38",
"J 	c #FFE037",
"K 	c #FBCC2A",
"L 	c #FFE36F",
"M 	c #FFF7C6",
"N 	c #C0AD5F",
"O 	c #D4B32A",
"P 	c #F6D23B",
"Q 	c #967223",
"R 	c #313027",
"S 	c #16242D",
"T 	c #896622",
"U 	c #1E1E26",
"V 	c #887731",
"W 	c #F5DA39",
"X 	c #E3BC2C",
"Y 	c #71632F",
"Z 	c #564729",
"` 	c #7C5F22",
" .	c #E0AF2A",
"..	c #C5A732",
"+.	c #131727",
"@.	c #7F722F",
"#.	c #FFEA3B",
"$.	c #181D29",
"%.	c #FFF13B",
"&.	c #554C2B",
"*.	c #C2B138",
"=.	c #EBB225",
"-.	c #8A6622",
";.	c #D6A92A",
">.	c #7B682B",
",.	c #46412A",
"'.	c #CCAA32",
").	c #FFE43A",
"!.	c #EAC033",
"~.	c #BC8E23",
"{.	c #112730",
"].	c #DDA522",
"^.	c #D39F22",
"/.	c #D2A329",
"(.	c #5C4322",
"_.	c #152E31",
":.	c #A7771D",
"<.	c #F2BE2B",
"[.	c #69471E",
"}.	c #5E4822",
"|.	c #06252E",
"1.	c #605127",
"2.	c #B28320",
"3.	c #8F6A1F",
"4.	c #2F352A",
"5.	c #0F2B32",
"6.	c #BE9F33",
"7.	c #2A2A27",
"8.	c #B59A2D",
"9.	c #000612",
"0.	c #4D3B22",
"a.	c #CFB74F",
"b.	c #EBBA1A",
"c.	c #FFE784",
"d.	c #FFEE72",
"e.	c #AF801F",
"f.	c #161F29",
"g.	c #F9D34E",
"h.	c #BB891F",
"i.	c #7A5309",
"j.	c #133232",
"k.	c #F3C630",
"l.	c #48331E",
"                                                                                ",
"                                                                                ",
"                                                                                ",
"                                                                                ",
"                                                                                ",
"                                                                                ",
"                                                                                ",
"                                                                                ",
"                                                                                ",
"                                                                                ",
"                      . + @                       # $                           ",
"                    % & * = -     ; > > , >     @ * = '                         ",
"                    ) ! ~ { ] ^ / ( _ ( : < [ } & | 1 2                         ",
"                    3 4 5 6 7 8 9 0 a a b c < d e f g h i                       ",
"                    j k l 1 m n o ~ l p q l r s t u v w x                       ",
"                    y 2 k z g q q p p A B C D E v 0 ! 7                         ",
"                        # F G H I J p K L M N O P Q R                           ",
"                        S T m U V W l P 5 X 7 Y l Z                             ",
"                        `  ...U +.@.l #.../ ] Y q F #                           ",
"                        n K W { $.& u %.= ] &.*.5 =._ $.                        ",
"                        -.;.q ~ >.&.l #.H ,.'.).!.~.e {.                        ",
"                          -.].^.m F p ~ P f /.^.~.(._.                          ",
"                          $ 3 j :.4 ;./.1 <.-.[.}.y                             ",
"                              |.1.n 2.~.~.3.4.' -                               ",
"                                5.+ 2.K 6.7.                                    ",
"                                  ) 2.q 8.9.                                    ",
"                                  0.2.K a.                                      ",
"                                  0.2.b.c.  d.e.f.                              ",
"                                  0.2.z g.g.f ! U                               ",
"                                  + h.q X i._ Z j.                              ",
"                                  0.m k.6.                                      ",
"                                    l.[.                                        ",
"                                                                                ",
"                                                                                ",
"                                                                                ",
"                                                                                ",
"                                                                                ",
"                                                                                ",
"                                                                                ",
"                                                                                "};
