/* XPM */
static char * link_up_xpm[] = {
"40 40 202 2",
"  	c #489848",
". 	c #363325",
"+ 	c #2F3324",
"@ 	c #352C25",
"# 	c #0A3839",
"$ 	c #1A1630",
"% 	c #242A2A",
"& 	c #427116",
"* 	c #4C8512",
"= 	c #447414",
"- 	c #467C13",
"; 	c #467A15",
"> 	c #283927",
", 	c #173833",
"' 	c #3A4A1C",
") 	c #39551B",
"! 	c #579812",
"~ 	c #6BB415",
"{ 	c #65AB15",
"] 	c #597B20",
"^ 	c #4B5329",
"/ 	c #323A22",
"( 	c #49890D",
"_ 	c #549B0D",
": 	c #72B51C",
"< 	c #81C124",
"[ 	c #7BBB22",
"} 	c #75BC18",
"| 	c #53970F",
"1 	c #1C2E2C",
"2 	c #8F694B",
"3 	c #AC7752",
"4 	c #293531",
"5 	c #161826",
"6 	c #64AD08",
"7 	c #5CA60E",
"8 	c #61A414",
"9 	c #5EA312",
"0 	c #142C2D",
"a 	c #2B2425",
"b 	c #C9865E",
"c 	c #F1A26B",
"d 	c #452725",
"e 	c #0C112A",
"f 	c #1E3527",
"g 	c #6EB319",
"h 	c #3C6618",
"i 	c #4E920C",
"j 	c #3B7517",
"k 	c #231B1D",
"l 	c #473528",
"m 	c #292928",
"n 	c #B37856",
"o 	c #D99260",
"p 	c #3B342C",
"q 	c #77B720",
"r 	c #2B2A1E",
"s 	c #9C622D",
"t 	c #B36E36",
"u 	c #1C242A",
"v 	c #784D19",
"w 	c #C96507",
"x 	c #344421",
"y 	c #4B8911",
"z 	c #3E8400",
"A 	c #326C0D",
"B 	c #2D4121",
"C 	c #B97410",
"D 	c #8C5A35",
"E 	c #272926",
"F 	c #8B5523",
"G 	c #A75A1A",
"H 	c #543A25",
"I 	c #A4510C",
"J 	c #704613",
"K 	c #86B859",
"L 	c #6E874C",
"M 	c #232426",
"N 	c #845427",
"O 	c #CF731C",
"P 	c #E77711",
"Q 	c #9B581A",
"R 	c #E4F0D2",
"S 	c #D1E2C5",
"T 	c #558C1A",
"U 	c #2F4611",
"V 	c #261B28",
"W 	c #A76525",
"X 	c #0B171B",
"Y 	c #6A4726",
"Z 	c #B75B0E",
"` 	c #4C4F1B",
" .	c #AED771",
"..	c #9ECC65",
"+.	c #1C421B",
"@.	c #905B28",
"#.	c #7A483B",
"$.	c #53264C",
"%.	c #502F30",
"&.	c #D46C47",
"*.	c #CD6B32",
"=.	c #7B4E22",
"-.	c #352826",
";.	c #A34D7B",
">.	c #CD569E",
",.	c #142717",
"'.	c #69A61A",
").	c #16430A",
"!.	c #ED63AC",
"~.	c #8E4968",
"{.	c #1B2625",
"].	c #B04F89",
"^.	c #FF6BCB",
"/.	c #793B6B",
"(.	c #609B1B",
"_.	c #AC4A87",
":.	c #8A3668",
"<.	c #38314A",
"[.	c #7C4061",
"}.	c #DC5CA7",
"|.	c #FA64BC",
"1.	c #FF6DD2",
"2.	c #743A5C",
"3.	c #7ECF19",
"4.	c #5B8427",
"5.	c #60394F",
"6.	c #EB61B5",
"7.	c #669223",
"8.	c #382A35",
"9.	c #594128",
"0.	c #312B19",
"a.	c #123717",
"b.	c #8B5A28",
"c.	c #7E5227",
"d.	c #583A22",
"e.	c #246756",
"f.	c #38B96C",
"g.	c #3BB35D",
"h.	c #54182C",
"i.	c #334737",
"j.	c #33815D",
"k.	c #22463E",
"l.	c #46261E",
"m.	c #112832",
"n.	c #2B775C",
"o.	c #3CCB71",
"p.	c #3DC36E",
"q.	c #268446",
"r.	c #1D6935",
"s.	c #33794F",
"t.	c #2D6949",
"u.	c #3B956A",
"v.	c #368967",
"w.	c #389369",
"x.	c #3FD270",
"y.	c #43EE76",
"z.	c #3FE171",
"A.	c #40D571",
"B.	c #A6832A",
"C.	c #C8BE41",
"D.	c #19856F",
"E.	c #42E474",
"F.	c #41DD72",
"G.	c #258A6C",
"H.	c #265448",
"I.	c #C7D753",
"J.	c #A3BC52",
"K.	c #61A361",
"L.	c #1D9771",
"M.	c #2FA671",
"N.	c #28956F",
"O.	c #77B665",
"P.	c #7EA658",
"Q.	c #104D49",
"R.	c #4FA86A",
"S.	c #D9D145",
"T.	c #AABC4F",
"U.	c #CEAF35",
"V.	c #56381E",
"W.	c #FADC3E",
"X.	c #85A857",
"Y.	c #9CCB5F",
"Z.	c #588B56",
"`.	c #75AC5E",
" +	c #D0D349",
".+	c #C9CE4B",
"++	c #B2C250",
"@+	c #E5D442",
"#+	c #1A463C",
"$+	c #58181F",
"%+	c #630D18",
"&+	c #562225",
"*+	c #37654A",
"=+	c #1C6E5D",
"-+	c #482835",
";+	c #AD1A21",
">+	c #DA151F",
",+	c #8A1D22",
"'+	c #C11820",
")+	c #661F22",
"!+	c #3D1E21",
"~+	c #0F2F2E",
"                                                                                ",
"                                                                                ",
"                                                                                ",
"                                      . + + @ + #                               ",
"                                $ % & * = = - ; > $                             ",
"                            , ' ' ) ! ~ { { ~ { ] ^ ) >                         ",
"                            / ( _ ! : < [ [ [ : } : | '                         ",
"                  1 2 3 4 5 + * 6 : [ < [ { 7 8 9 9 | / 5 0 2 3 4               ",
"                  a b c d e f * g [ : g 8 = ) h * i i j f k b c l               ",
"                  m n o p 5 / - ~ q ! i * / $ + = _ i 7 j r 3 o p               ",
"                  m s t u v w / j 9 x ) y = ) h z A B C C m D t .               ",
"                  E F G H I w J ) h / & 8 { { 8 K L > I I M v G @               ",
"                  m N O C H l P Q 0 = { q [ ~ [ R S T U V M F W @               ",
"                  a F O P H X Y Z Z ` j ~ 9 { [  ..._ +.a v w W @               ",
"                  1 Y G @.#.$.e v w d > - ( 8 [ } 6 _ +.%.&.*.=.4               ",
"                      -.m ;.>.4 ,.a a % + = '.} [ ~ _ ).$.!.~.{.#               ",
"                          ].^.].~./.m X m = 9 8 } (.) ~._.:.<.                  ",
"                          [.}.|.1.!.2.V + ; | ( 3.4.V _.].{.                    ",
"                            5.}.^.|.6./.,.- _ i : 7.E 8.8.{.{.                  ",
"                      f 9.0.M 2.:.:.^.6.~.^ A _ 3.7.V X r 9.Y l ,               ",
"                      H @.Y u 1 a.4 ].6.>.$.a.* g 4.4 u p b.W c.@               ",
"                  % 9.N @.d.1 e.f.g.<.h.$.V k r 0.i.j.k.d N s c.@               ",
"                  m Y W s l.m.n.o.p.q.r.r.s.s.s.t.n.u.k.l.b.N                   ",
"                  m 9.b.F 9.i.v.v.w.x.y.z.z.z.z.y.A.w.k.p =.H                   ",
"                  m m m -.B.C.u.D.u.x.z.E.F.F.F.y.A.w.G.H.p %                   ",
"                  a H H k L I.J.K.L.M.f.p.A.E.F.p.N.v.O.P.M                     ",
"                  m F G -.Q.R.S.T.v.v.v.w.p.E.A.u.G.j.I.U.+                     ",
"                  # p V.k e.R.K.T.S.W.X.D.L.L.N.Y.W.S.Y.Z.-.                    ",
"                            n.G.`. +.+J.X.X.P.X.++I..+Z.Q.                      ",
"                            p n.u.w.G.K W.@+W.@+`.G.v.i.{.                      ",
"                            a #+#+Q.G.R.O.K Y.O.t.# Q.M u                       ",
"                            -.$+%+&+*+n.e.=+=+e.-+%+$+l.0                       ",
"                            d ;+>+;+d 0 E m % m ,+>+'+)+                        ",
"                                ,+)+!+5 ~+# 0 V )+,+)++                         ",
"                                ~+~+1           0 ~+                            ",
"                                                                                ",
"                                                                                ",
"                                                                                ",
"                                                                                ",
"                                                                                "};
