/* XPM */
static char * link_right_xpm[] = {
"40 40 210 2",
"  	c #489848",
". 	c #163538",
"+ 	c #475A24",
"@ 	c #3B531D",
"# 	c #254825",
"$ 	c #0D2C2C",
"% 	c #272626",
"& 	c #70B120",
"* 	c #84C722",
"= 	c #569911",
"- 	c #52940E",
"; 	c #538A0F",
"> 	c #434C1C",
", 	c #172B34",
"' 	c #073735",
") 	c #426517",
"! 	c #568615",
"~ 	c #699522",
"{ 	c #75B71D",
"] 	c #89D321",
"^ 	c #7CC021",
"/ 	c #57A30B",
"( 	c #849009",
"_ 	c #AD8707",
": 	c #D2730E",
"< 	c #864A17",
"[ 	c #26352D",
"} 	c #04232C",
"| 	c #123244",
"1 	c #393045",
"2 	c #65A817",
"3 	c #7BC71B",
"4 	c #7AB921",
"5 	c #54A617",
"6 	c #309715",
"7 	c #FB7800",
"8 	c #F88800",
"9 	c #C46D1B",
"0 	c #2A2816",
"a 	c #36253B",
"b 	c #482C44",
"c 	c #10322C",
"d 	c #242B2C",
"e 	c #251E26",
"f 	c #478B0E",
"g 	c #469211",
"h 	c #985602",
"i 	c #382B28",
"j 	c #944485",
"k 	c #C85698",
"l 	c #4B3538",
"m 	c #08281E",
"n 	c #536A22",
"o 	c #364722",
"p 	c #6EB518",
"q 	c #AF7C04",
"r 	c #EA8B03",
"s 	c #663819",
"t 	c #934574",
"u 	c #E960B3",
"v 	c #F764BB",
"w 	c #B04980",
"x 	c #559312",
"y 	c #4D8B11",
"z 	c #447C11",
"A 	c #669014",
"B 	c #C88604",
"C 	c #EE6C02",
"D 	c #DD6903",
"E 	c #BE6504",
"F 	c #483424",
"G 	c #723B74",
"H 	c #FC68C3",
"I 	c #9C3F6D",
"J 	c #4B6A26",
"K 	c #53361F",
"L 	c #472925",
"M 	c #994975",
"N 	c #D45AA8",
"O 	c #F76BCA",
"P 	c #84D01E",
"Q 	c #559C0D",
"R 	c #3F621F",
"S 	c #665243",
"T 	c #884D34",
"U 	c #9F5511",
"V 	c #895219",
"W 	c #6B3C55",
"X 	c #57326B",
"Y 	c #AD4D8C",
"Z 	c #8E4474",
"` 	c #57374A",
" .	c #608725",
"..	c #2C4E19",
"+.	c #34372C",
"@.	c #C67D4F",
"#.	c #E79454",
"$.	c #373A34",
"%.	c #0C1618",
"&.	c #D95BA6",
"*.	c #162217",
"=.	c #FDB67A",
"-.	c #B5835A",
";.	c #683B55",
">.	c #3D2934",
",.	c #432139",
"'.	c #744716",
").	c #2B2A2A",
"!.	c #07172A",
"~.	c #AB7046",
"{.	c #F7A663",
"].	c #EEB072",
"^.	c #7E563F",
"/.	c #495B48",
"(.	c #364A4A",
"_.	c #A25F2D",
":.	c #B56E39",
"<.	c #1B2525",
"[.	c #E98430",
"}.	c #6A6933",
"|.	c #873A66",
"1.	c #B8CBDA",
"2.	c #B1B2AF",
"3.	c #A46C38",
"4.	c #DD9259",
"5.	c #CB8347",
"6.	c #594225",
"7.	c #912E6C",
"8.	c #DEEDED",
"9.	c #273535",
"0.	c #88593B",
"a.	c #CC9262",
"b.	c #6F522E",
"c.	c #B6651C",
"d.	c #CFC3AF",
"e.	c #755844",
"f.	c #4C2F19",
"g.	c #945724",
"h.	c #795851",
"i.	c #E28C49",
"j.	c #AE6323",
"k.	c #543829",
"l.	c #554550",
"m.	c #F79747",
"n.	c #9F6442",
"o.	c #714825",
"p.	c #484A49",
"q.	c #AD5C1B",
"r.	c #050F22",
"s.	c #554935",
"t.	c #305543",
"u.	c #348A65",
"v.	c #2A7459",
"w.	c #3E4B38",
"x.	c #216554",
"y.	c #CF7A34",
"z.	c #191B28",
"A.	c #3E8A5C",
"B.	c #41CD81",
"C.	c #3BB06E",
"D.	c #1B544B",
"E.	c #1C4C46",
"F.	c #3BBB73",
"G.	c #4A4838",
"H.	c #38AA5C",
"I.	c #43E47C",
"J.	c #39946A",
"K.	c #261C1F",
"L.	c #3EDA72",
"M.	c #316C56",
"N.	c #4B422D",
"O.	c #295645",
"P.	c #5C663C",
"Q.	c #4E9656",
"R.	c #228352",
"S.	c #936832",
"T.	c #562223",
"U.	c #192829",
"V.	c #6C4A14",
"W.	c #E1C73A",
"X.	c #8F5C26",
"Y.	c #1C6D5B",
"Z.	c #A98F2F",
"`.	c #D6B836",
" +	c #B1CC57",
".+	c #BBB442",
"++	c #BF7A3F",
"@+	c #4F5B37",
"#+	c #85A955",
"$+	c #BAAE3B",
"%+	c #F69E56",
"&+	c #FDA458",
"*+	c #CECD47",
"=+	c #88BE62",
"-+	c #57915B",
";+	c #34513D",
">+	c #56A163",
",+	c #48714D",
"'+	c #FFA95A",
")+	c #00403F",
"!+	c #821823",
"~+	c #91181C",
"{+	c #371D20",
"]+	c #5F1824",
"^+	c #541C1F",
"/+	c #B3241A",
"(+	c #781D24",
"_+	c #AE1721",
":+	c #C00D21",
"<+	c #984913",
"                                                                                ",
"                                                                                ",
"                                                                                ",
"                                . + + + @ @ # $                                 ",
"                              % + & * & = - ; > , '                             ",
"                            ) ! ~ { ] ^ / ( _ : < [ } $                         ",
"                      | 1 + 2 3 ] 4 & 5 6 ( 7 8 9 0 a b c                       ",
"                    d e e ) { * * 4 2 f g _ 7 7 h i j k l m                     ",
"                  n ! > e o 2 p 5 = ( q _ r 7 h s t u v w b                     ",
"                + { 3 x # @ y f z A B 7 C D E F G u v H H I                     ",
"              J & * p f z x f # K : 8 C s 0 L M N v v O v M                     ",
"              ~ P p = - Q g R S T U h V W X G u O O Y Z Z `                     ",
"               .{ = f - x ..+.@.#.$.%.1 N v u &.u &.S *.*.$                     ",
"              ~ 3 = Q x @ m a @.=.-.l a &.k ;.>.,.` T '.0                       ",
"              J A Q ; ) ).!.i ~.{.].^.a &.M *./.(.% _.:.i                       ",
"                o x ) ).% <.% < [.{.}.a &.|.$.1.2.l 3.4.l                       ",
"                  o # ,     *.V [.5.6.1 v 7., 8.1.9.0.=.a.b.                    ",
"                          ,.;.0.c.9 '.l Y |.S d.2.e.:.{.a.S !.                  ",
"                          |.k W f.c.9 g.>.h.#.@.5.#.i.j.k.. '                   ",
"                          l.M b *.s 9 9 '.3.m.: c.n.b.o.e.p.'                   ",
"                          c <.)., [ o.c.j.j.U q.V d r.s.#.~.<.                  ",
"                            *.t.u.v.w.L k.F L f.w.x.' F y.g.z.                  ",
"                            [ A.B.C.D.r.!.. E.. v.F.u.G.'.K                     ",
"                            [ H.I.J.(.% K.t.J.J.C.L.F.M.d                       ",
"                          !.c H.L.t.F o.o.N.O.H.B.L.v., z.                      ",
"                          # P.Q.R.% k._.S.T.U.H.F.M.s.V.i                       ",
"                          S.W.}.r.U.6.X.X.K $ u.Y., Z.`.N.                      ",
"                          P. +.+X.).b.y.++:.n.(.@+Z. +#+$.                      ",
"                            A. +$++.^.%+#.&+i.L b.*+=+x.                        ",
"                            $.-+Q.d T %+#.&+#.k.;+>+,+                          ",
"                              O.E.d 3.&+'+i.0.i )+D.                            ",
"                                z.d e.4.4.^.<.% i %                             ",
"                                K.*.o G.p., !.!+~+{+                            ",
"                                L ]+]+^+s V.< /+(+d                             ",
"                                T._+:+/+D 7 D s ,                               ",
"                                  (+!+(+<+<+V [                                 ",
"                                    $ $ } !.}                                   ",
"                                                                                ",
"                                                                                ",
"                                                                                "};
