/* XPM */
static char * link_left_xpm[] = {
"40 40 209 2",
"  	c #489848",
". 	c #030819",
"+ 	c #191A27",
"@ 	c #06262C",
"# 	c #154A34",
"$ 	c #35521C",
"% 	c #3C5525",
"& 	c #4A6124",
"* 	c #2D4F31",
"= 	c #081A28",
"- 	c #0B3133",
"; 	c #152C34",
"> 	c #372517",
", 	c #4A6E12",
"' 	c #579B0C",
") 	c #53950D",
"! 	c #689B1A",
"~ 	c #82CC1E",
"{ 	c #83C322",
"] 	c #5D8723",
"^ 	c #383728",
"/ 	c #333039",
"( 	c #34423B",
"_ 	c #041D1D",
": 	c #633E24",
"< 	c #B77008",
"[ 	c #D77C01",
"} 	c #A28F03",
"| 	c #66B119",
"1 	c #85CD20",
"2 	c #87D020",
"3 	c #78B821",
"4 	c #648D1F",
"5 	c #487716",
"6 	c #284847",
"7 	c #493A37",
"8 	c #452945",
"9 	c #17272B",
"0 	c #8B4F09",
"a 	c #F68701",
"b 	c #FF8200",
"c 	c #CB7B05",
"d 	c #548817",
"e 	c #37A119",
"f 	c #62A719",
"g 	c #7AC91A",
"h 	c #484427",
"i 	c #363746",
"j 	c #272927",
"k 	c #B24883",
"l 	c #B04C96",
"m 	c #46263B",
"n 	c #6E4A14",
"o 	c #EF7301",
"p 	c #638F0E",
"q 	c #3C9110",
"r 	c #589812",
"s 	c #28342A",
"t 	c #5A5656",
"u 	c #8D3B68",
"v 	c #ED62B4",
"w 	c #FC68C4",
"x 	c #A64B8A",
"y 	c #673C46",
"z 	c #7C4C0C",
"A 	c #D96D00",
"B 	c #CD8B04",
"C 	c #9B8608",
"D 	c #52A412",
"E 	c #73B91B",
"F 	c #577B17",
"G 	c #41591F",
"H 	c #32483E",
"I 	c #783353",
"J 	c #994787",
"K 	c #367113",
"L 	c #4A890E",
"M 	c #364528",
"N 	c #5DA412",
"O 	c #6E7450",
"P 	c #E85FB5",
"Q 	c #F865BB",
"R 	c #B95390",
"S 	c #683E3F",
"T 	c #1D301E",
"U 	c #C83E0F",
"V 	c #975309",
"W 	c #262E17",
"X 	c #4B8611",
"Y 	c #70A521",
"Z 	c #2A5A55",
"` 	c #803C70",
" .	c #964878",
"..	c #DC5CA9",
"+.	c #FF70D2",
"@.	c #5C346B",
"#.	c #8F4F34",
"$.	c #985924",
"%.	c #724D2D",
"&.	c #4E512F",
"*.	c #577326",
"=.	c #30534B",
"-.	c #111613",
";.	c #E359A9",
">.	c #85426B",
",.	c #8C684B",
"'.	c #EF9C6A",
").	c #885A48",
"!.	c #4F970C",
"~.	c #4E4F4F",
"{.	c #6A3A12",
"].	c #834D23",
"^.	c #331A2B",
"/.	c #533145",
"(.	c #783A67",
"_.	c #745B42",
":.	c #EFA76D",
"<.	c #73514A",
"[.	c #B06E37",
"}.	c #4B321B",
"|.	c #273D40",
"1.	c #485A59",
"2.	c #B78658",
"3.	c #FFBB79",
"4.	c #EA9957",
"5.	c #2F4018",
"6.	c #D38B54",
"7.	c #B87B4B",
"8.	c #463829",
"9.	c #778D8C",
"0.	c #D0DDDB",
"a.	c #5C6C6B",
"b.	c #CF4F9B",
"c.	c #FDA458",
"d.	c #C47128",
"e.	c #563926",
"f.	c #5E644F",
"g.	c #AB6D4B",
"h.	c #79AB9B",
"i.	c #EFFFFF",
"j.	c #8C4183",
"k.	c #94632B",
"l.	c #F68C35",
"m.	c #D2721D",
"n.	c #4A4335",
"o.	c #C67D48",
"p.	c #A88D89",
"q.	c #DACFBE",
"r.	c #877E74",
"s.	c #9D5715",
"t.	c #CA6D16",
"u.	c #AB6626",
"v.	c #D77C34",
"w.	c #CC8241",
"x.	c #594429",
"y.	c #B8681F",
"z.	c #A57B90",
"A.	c #764926",
"B.	c #925F42",
"C.	c #A35E23",
"D.	c #B05A15",
"E.	c #3A3933",
"F.	c #14584F",
"G.	c #2D6239",
"H.	c #442F29",
"I.	c #2E8766",
"J.	c #347657",
"K.	c #6A662F",
"L.	c #37AC6F",
"M.	c #379568",
"N.	c #19483D",
"O.	c #174745",
"P.	c #43CA84",
"Q.	c #2B5847",
"R.	c #40E173",
"S.	c #3BC46E",
"T.	c #32191B",
"U.	c #3ED173",
"V.	c #43DB78",
"W.	c #339B5B",
"X.	c #513012",
"Y.	c #3A6758",
"Z.	c #67A763",
"`.	c #B3A337",
" +	c #C9AB2E",
".+	c #A79D73",
"++	c #5C8844",
"@+	c #B7CC54",
"#+	c #675945",
"$+	c #9F683C",
"%+	c #AC912D",
"&+	c #719146",
"*+	c #8B8E7A",
"=+	c #CED64E",
"-+	c #8C8530",
";+	c #372827",
">+	c #589F62",
",+	c #316E4D",
"'+	c #F39C57",
")+	c #FFB05D",
"!+	c #665E62",
"~+	c #700A0F",
"{+	c #B1171E",
"]+	c #4B1217",
"^+	c #8E381A",
"/+	c #581722",
"(+	c #721C24",
"_+	c #C00F22",
":+	c #061A16",
"                                                                                ",
"                                                                                ",
"                                      . + .                                     ",
"                                @ # $ % & & & * =                               ",
"                            - ; > , ' ) ! ~ { ] ^ / (                           ",
"                          _ @ : < [ } ' | 1 2 3 4 5 & 6                         ",
"                      @ 7 8 9 0 a b c d e f 3 { ~ g d h i -                     ",
"                    6 j k l m n [ o c p q r | 3 ~ ~ 4 s + + t                   ",
"                    t u v w x y z A b B } C ! D | E d s j , F G                 ",
"                  H I v w w w J / 0 A A o o } 5 K L 5 M $ N ~ ! O               ",
"                  H I P w Q Q v R S T > U b b V W K r d X r E { Y G             ",
"                  Z m `  .J ..+.w x @.@.#.V V $.%.&.K D ' r r E ~ *.            ",
"                    =.-.-.7 R v ..;.Q Q >.= _ ,.'.).W K ' !.L N 3 *.            ",
"                      ~.{.].y 8 ^./. .v (.j _.:.:.<.+ 9 5 ' ) N 1 *.            ",
"                      ~.$.[.}.|.1.s y ..` 7 2.3.4.%.+ + 5.5 ) N d %             ",
"                    6 j 6.7.8.9.0.a./.b.(.7 2.c.d.e.9 + j ^ 5 5 f.              ",
"                  6 7 2.3.g.^.h.i.a.m ;.j.9 k.l.m.>       _ M 5.                ",
"                  6 n.7.:.o.<.p.q.r.y x (.e.s.t.u.%.^.                          ",
"                  Z - ^ s.v.4.6.w.4.g.8 x.y.m.z 8.x  .z.                        ",
"                  6 6 <.A.%.B.y.t.l.w.A.s.m.s.> + (.u z.                        ",
"                  / #.'.).= = x.C.D.s.u.y.$.E.; j j _                           ",
"                  i A.w.A.; F.G.H.}.}.e.e.8.Z I.J.T                             ",
"                    K.{.x.J.L.M.N.O.; 9 . - J.P.L.G.                            ",
"                      j Q.L.R.S.M.M.J./ T.j J.P.U.G.                            ",
"                        + F.M.V.U.J.M %.A.: E.W.R.J..                           ",
"                        X.x.Y.L.S.* T.].u.].T.N.W.] 8.Z.                        ",
"                        `. +x.F.I.O.> A.k.A.H.= ; `. +.+                        ",
"                        ++@+`.K.Q.#+$+o.w.$+^ }.%+@+&+*+                        ",
"                        O.Z.=+-+;+g.c.4.c.o.H.K.=+{ h.                          ",
"                        1.G.>+,+;+[.c.4.'+o.7 Q.>+Q.                            ",
"                            Z N.s x.7.'+)+6.e.; O.9.                            ",
"                            !+T.j + 7 o.'+7.7 .                                 ",
"                            !+~+{+^.= / n.n.j . r.                              ",
"                              ]+{+^+n n e./+(+]+r.                              ",
"                                T.D.o o U _+_+~+z.                              ",
"                                >+X.s.s.^+(+~+p.                                ",
"                                    . = @ :+                                    ",
"                                                                                ",
"                                                                                ",
"                                                                                "};
