/* XPM */
static char * link1_xpm[] = {
"40 40 189 2",
"  	c #489848",
". 	c #42551B",
"+ 	c #35581A",
"@ 	c #366616",
"# 	c #539A0E",
"$ 	c #549411",
"% 	c #71B422",
"& 	c #6DBB22",
"* 	c #5EB11F",
"= 	c #2A2727",
"- 	c #488B0F",
"; 	c #6EB11B",
"> 	c #A2A50F",
", 	c #79BB1E",
"' 	c #549522",
") 	c #558813",
"! 	c #463224",
"~ 	c #7A9D07",
"{ 	c #469412",
"] 	c #5DA916",
"^ 	c #1A1F2B",
"/ 	c #E66705",
"( 	c #B78904",
"_ 	c #6AA719",
": 	c #462D25",
"< 	c #36301C",
"[ 	c #271D24",
"} 	c #AC7552",
"| 	c #6B4E34",
"1 	c #A84A87",
"2 	c #653659",
"3 	c #0E2115",
"4 	c #442C0D",
"5 	c #9F6003",
"6 	c #DC8C01",
"7 	c #E59204",
"8 	c #12171D",
"9 	c #704F46",
"0 	c #F9AE72",
"a 	c #986A44",
"b 	c #311E34",
"c 	c #E760AF",
"d 	c #C8559B",
"e 	c #543944",
"f 	c #452D5D",
"g 	c #87472D",
"h 	c #BC5A05",
"i 	c #C25A03",
"j 	c #7E492A",
"k 	c #5A5D33",
"l 	c #162419",
"m 	c #A27152",
"n 	c #F9A76C",
"o 	c #654B46",
"p 	c #E89C68",
"q 	c #8B6941",
"r 	c #2E2832",
"s 	c #FF6ECF",
"t 	c #F764BB",
"u 	c #793C69",
"v 	c #8F4671",
"w 	c #0E2229",
"x 	c #D69161",
"y 	c #544238",
"z 	c #B76F33",
"A 	c #D98949",
"B 	c #FF70D6",
"C 	c #D95CAA",
"D 	c #A94C90",
"E 	c #E99351",
"F 	c #4D362C",
"G 	c #A35611",
"H 	c #DA853A",
"I 	c #BA5193",
"J 	c #B94C8C",
"K 	c #BD8361",
"L 	c #523B31",
"M 	c #B9651C",
"N 	c #784B19",
"O 	c #242125",
"P 	c #192528",
"Q 	c #3F2F42",
"R 	c #4C3523",
"S 	c #5B4126",
"T 	c #6F3A3E",
"U 	c #725525",
"V 	c #8C9082",
"W 	c #A5AEA6",
"X 	c #A3A99B",
"Y 	c #744B25",
"Z 	c #5D3110",
"` 	c #82BF64",
" .	c #67381E",
"..	c #A45E1F",
"+.	c #6D3D05",
"@.	c #FFFDF4",
"#.	c #FFFFFF",
"$.	c #DDD1C6",
"%.	c #CA6613",
"&.	c #CA8348",
"*.	c #92A3B0",
"=.	c #493932",
"-.	c #D08B58",
";.	c #91541D",
">.	c #2A151D",
",.	c #FFD3AC",
"'.	c #68696A",
").	c #0F0F0F",
"!.	c #CE8C5E",
"~.	c #FFC380",
"{.	c #E87A26",
"].	c #2F5848",
"^.	c #274538",
"/.	c #153134",
"(.	c #B96723",
"_.	c #F0914A",
":.	c #905A39",
"<.	c #966231",
"[.	c #164139",
"}.	c #2D7553",
"|.	c #40D373",
"1.	c #3B956A",
"2.	c #512B1C",
"3.	c #E58D45",
"4.	c #264A41",
"5.	c #36996A",
"6.	c #3FCA72",
"7.	c #30804B",
"8.	c #4B6431",
"9.	c #2D9D5E",
"0.	c #3BA672",
"a.	c #237962",
"b.	c #29463D",
"c.	c #B1734E",
"d.	c #885727",
"e.	c #36352C",
"f.	c #328E68",
"g.	c #3C2723",
"h.	c #905723",
"i.	c #383A34",
"j.	c #2A6351",
"k.	c #37A36C",
"l.	c #451312",
"m.	c #315F4C",
"n.	c #3AB569",
"o.	c #1E5A3E",
"p.	c #41E476",
"q.	c #278168",
"r.	c #40DC71",
"s.	c #4E392F",
"t.	c #F09C56",
"u.	c #A16836",
"v.	c #184B44",
"w.	c #249274",
"x.	c #3CBA73",
"y.	c #30D977",
"z.	c #2EE87A",
"A.	c #A96E42",
"B.	c #535258",
"C.	c #4F7F4D",
"D.	c #8EB658",
"E.	c #4C7551",
"F.	c #71C55C",
"G.	c #87F162",
"H.	c #365245",
"I.	c #FFE43C",
"J.	c #7B7132",
"K.	c #D5B435",
"L.	c #FFF944",
"M.	c #FEE841",
"N.	c #4D8753",
"O.	c #76B965",
"P.	c #98B351",
"Q.	c #FFD737",
"R.	c #5D121A",
"S.	c #05605B",
"T.	c #75A456",
"U.	c #DAE252",
"V.	c #BECC50",
"W.	c #B6C44F",
"X.	c #0B6960",
"Y.	c #B81820",
"Z.	c #671222",
"`.	c #BD2830",
" +	c #A54310",
".+	c #AA1C17",
"++	c #562D30",
"@+	c #A45B22",
"#+	c #C1261C",
"                                                                                ",
"                                                                                ",
"                                                                                ",
"                                                                                ",
"                                                                                ",
"                                    . + . . .                                   ",
"                                  @ # $ % & * @ =                               ",
"                                @ - # ; > & , & ' )                             ",
"                              ! > ~ { ] & & * > > ) @                           ",
"                            ^ ! / ( { - _ , { ( / : + ) < [                     ",
"                    } |   1 2 3 4 5 6 6 7 7 6 5 4 8 @ # = 9 }                   ",
"                  9 0 a b c d e f g h i h h h j f 2 k @ l m n |                 ",
"                  o p q r d s c t u 8 = = = l v t t v w 8 m x o                 ",
"                  y z A } o 1 B s C 1 1 D D 1 C s B u l m E z y                 ",
"                  F G H } y u I 1 J d d d d d J 1 I v o K H G !                 ",
"                  L M N f C v O = [ = r r r [ = [ P v C Q N M R                 ",
"                    S N j u T U V W X Y Z U X W ` T T u Y N  .                  ",
"                      | ..4 +.A @.#.$.A %.A $.@.@.A N 4 ..Y                     ",
"                        R ..i &.@.*.=.-.n -.y *.@.&.h ;.!                       ",
"                        >. .G H ,.'.).!.~.!.).'.,.{.;. .>.                      ",
"                      ].^./.S (._.:.y x 0 x y <._.(.S /.^.[.                    ",
"                      }.|.1.^.2.(.3.p p 0 0 p 3.(.2.4.5.6.7.                    ",
"                      8.9.0.a.b.Z g } A _.A c.g  .b.a.0.9.8.|                   ",
"                    d. .r }.0.1.b.w e.;.M ;.= w ^.f.0.}.=  .d.:                 ",
"                  g.Y h.Y i.j.k.6.k.j.g.l.< m.k.n.5.j.i.Y h.U :                 ",
"                  : <.<.R >.4.k.6.6.n.}.o.}.n.p.p.0.b.>.R <.<.F                 ",
"                  L A a O O m.1.q.n.r.p.p.r.6.r.6.0.].O P a A o                 ",
"                  s.&.t.u.g.v.w.q.5.x.y.z.y.x.5.w.w.[.g.A.t.&.F                 ",
"                  F A E <.B.C.D.D.E.j.F.G.F.j.E.D.D.E.H.a _.A !                 ",
"                  =.A :./.a.D.I.I.J.e.K.L.K.e.J.M.M.D.a./.:.A !                 ",
"                      o w [.N.` O.P.K.Q.I.Q.K.P.O.` N.[.P F                     ",
"                        g.R.i.S.S.T.U.V.W.W.U.T.S.X.i.R.=.                      ",
"                          Y.Z.= [ m.5.1.1.1.1.m.O P Z.`.                        ",
"                             +i .+++v.4.4.b.v.++.+i @+                          ",
"                              / #+Z.          Z.#+{.                            ",
"                                                                                ",
"                                                                                ",
"                                                                                ",
"                                                                                ",
"                                                                                "};
