/* XPM */
static char * tent_left_xpm[] = {
"40 40 298 2",
"  	c #489848",
". 	c #499648",
"+ 	c #030819",
"@ 	c #191A27",
"# 	c #449644",
"$ 	c #06262C",
"% 	c #154A34",
"& 	c #35521C",
"* 	c #3C5525",
"= 	c #4A6124",
"- 	c #2D4F31",
"; 	c #081A28",
"> 	c #0B3133",
", 	c #152C34",
"' 	c #372517",
") 	c #4A6E12",
"! 	c #579B0C",
"~ 	c #53950D",
"{ 	c #689B1A",
"] 	c #82CC1E",
"^ 	c #83C322",
"/ 	c #5D8723",
"( 	c #383728",
"_ 	c #333039",
": 	c #34423B",
"< 	c #041D1D",
"[ 	c #633E24",
"} 	c #B77008",
"| 	c #D77C01",
"1 	c #A28F03",
"2 	c #66B119",
"3 	c #85CD20",
"4 	c #87D020",
"5 	c #78B821",
"6 	c #648D1F",
"7 	c #487716",
"8 	c #284847",
"9 	c #493A37",
"0 	c #452945",
"a 	c #17272B",
"b 	c #8B4F09",
"c 	c #F68701",
"d 	c #FF8200",
"e 	c #CB7B05",
"f 	c #548817",
"g 	c #37A119",
"h 	c #62A719",
"i 	c #7AC91A",
"j 	c #484427",
"k 	c #363746",
"l 	c #272927",
"m 	c #B24883",
"n 	c #B04C96",
"o 	c #46263B",
"p 	c #6E4A14",
"q 	c #EF7301",
"r 	c #638F0E",
"s 	c #3C9110",
"t 	c #589812",
"u 	c #28342A",
"v 	c #5A5656",
"w 	c #8D3B68",
"x 	c #ED62B4",
"y 	c #FC68C4",
"z 	c #A64B8A",
"A 	c #673C46",
"B 	c #7C4C0C",
"C 	c #D96D00",
"D 	c #CD8B04",
"E 	c #9B8608",
"F 	c #52A412",
"G 	c #73B91B",
"H 	c #577B17",
"I 	c #41591F",
"J 	c #32483E",
"K 	c #783353",
"L 	c #994787",
"M 	c #367113",
"N 	c #4A890E",
"O 	c #364528",
"P 	c #5DA412",
"Q 	c #6E7450",
"R 	c #479B49",
"S 	c #E85FB5",
"T 	c #F865BB",
"U 	c #B95390",
"V 	c #683E3F",
"W 	c #1D301E",
"X 	c #C83E0F",
"Y 	c #975309",
"Z 	c #262E17",
"` 	c #4B8611",
" .	c #70A521",
"..	c #499447",
"+.	c #2A5A55",
"@.	c #803C70",
"#.	c #964878",
"$.	c #DC5CA9",
"%.	c #FF70D2",
"&.	c #5C346B",
"*.	c #8F4F34",
"=.	c #985924",
"-.	c #724D2D",
";.	c #4E512F",
">.	c #577326",
",.	c #653D39",
"'.	c #6B4D3C",
").	c #30534B",
"!.	c #111613",
"~.	c #E359A9",
"{.	c #85426B",
"].	c #8C684B",
"^.	c #EF9C6A",
"/.	c #885A48",
"(.	c #4F970C",
"_.	c #693337",
":.	c #8C6D4B",
"<.	c #B09062",
"[.	c #4E4F4F",
"}.	c #6A3A12",
"|.	c #834D23",
"1.	c #331A2B",
"2.	c #533145",
"3.	c #783A67",
"4.	c #745B42",
"5.	c #EFA76D",
"6.	c #73514A",
"7.	c #673638",
"8.	c #B06E37",
"9.	c #4B321B",
"0.	c #273D40",
"a.	c #485A59",
"b.	c #B78658",
"c.	c #FFBB79",
"d.	c #EA9957",
"e.	c #2F4018",
"f.	c #644339",
"g.	c #653536",
"h.	c #AC8D60",
"i.	c #D38B54",
"j.	c #B87B4B",
"k.	c #463829",
"l.	c #778D8C",
"m.	c #D0DDDB",
"n.	c #5C6C6B",
"o.	c #CF4F9B",
"p.	c #FDA458",
"q.	c #C47128",
"r.	c #563926",
"s.	c #5E644F",
"t.	c #378633",
"u.	c #6C543E",
"v.	c #8D714D",
"w.	c #93744D",
"x.	c #AB6D4B",
"y.	c #79AB9B",
"z.	c #EFFFFF",
"A.	c #8C4183",
"B.	c #94632B",
"C.	c #F68C35",
"D.	c #D2721D",
"E.	c #AE8D5F",
"F.	c #563C29",
"G.	c #9A784F",
"H.	c #4A4335",
"I.	c #C67D48",
"J.	c #A88D89",
"K.	c #DACFBE",
"L.	c #877E74",
"M.	c #9D5715",
"N.	c #CA6D16",
"O.	c #AB6626",
"P.	c #8E7351",
"Q.	c #C2A16E",
"R.	c #B59566",
"S.	c #39171A",
"T.	c #6D3C3A",
"U.	c #725B41",
"V.	c #D77C34",
"W.	c #CC8241",
"X.	c #594429",
"Y.	c #B8681F",
"Z.	c #A57B90",
"`.	c #7A5D43",
" +	c #B08E60",
".+	c #B99968",
"++	c #B89768",
"@+	c #1C1B14",
"#+	c #713C3B",
"$+	c #836748",
"%+	c #764926",
"&+	c #925F42",
"*+	c #A07F53",
"=+	c #BD9D6C",
"-+	c #6D453B",
";+	c #201B15",
">+	c #7D6245",
",+	c #A35E23",
"'+	c #B05A15",
")+	c #3A3933",
"!+	c #856B4A",
"~+	c #BC9C6B",
"{+	c #14584F",
"]+	c #2D6239",
"^+	c #442F29",
"/+	c #2E8766",
"(+	c #347657",
"_+	c #A48559",
":+	c #B89564",
"<+	c #AB8D61",
"[+	c #6A662F",
"}+	c #37AC6F",
"|+	c #379568",
"1+	c #19483D",
"2+	c #174745",
"3+	c #43CA84",
"4+	c #72583F",
"5+	c #936F4C",
"6+	c #2B5847",
"7+	c #40E173",
"8+	c #3BC46E",
"9+	c #32191B",
"0+	c #3ED173",
"a+	c #B79768",
"b+	c #683538",
"c+	c #43DB78",
"d+	c #339B5B",
"e+	c #A38257",
"f+	c #B19262",
"g+	c #947651",
"h+	c #9A7A51",
"i+	c #0E1910",
"j+	c #31342A",
"k+	c #513012",
"l+	c #3A6758",
"m+	c #67A763",
"n+	c #967A52",
"o+	c #B3A337",
"p+	c #C9AB2E",
"q+	c #A79D73",
"r+	c #5C8844",
"s+	c #B7CC54",
"t+	c #675945",
"u+	c #9F683C",
"v+	c #AC912D",
"w+	c #719146",
"x+	c #8B8E7A",
"y+	c #826647",
"z+	c #293128",
"A+	c #CED64E",
"B+	c #8C8530",
"C+	c #372827",
"D+	c #8E7D5E",
"E+	c #644A35",
"F+	c #73443C",
"G+	c #6E5A40",
"H+	c #826846",
"I+	c #8E7F61",
"J+	c #589F62",
"K+	c #316E4D",
"L+	c #F39C57",
"M+	c #BBAE84",
"N+	c #6F5740",
"O+	c #634C3A",
"P+	c #B7A97F",
"Q+	c #BBB790",
"R+	c #FFB05D",
"S+	c #BDA06F",
"T+	c #665E62",
"U+	c #B49465",
"V+	c #BD9D6B",
"W+	c #BDA678",
"X+	c #B29668",
"Y+	c #AC8A5C",
"Z+	c #700A0F",
"`+	c #B1171E",
" @	c #AC8C5F",
".@	c #794D42",
"+@	c #B28F5F",
"@@	c #4B1217",
"#@	c #8E381A",
"$@	c #581722",
"%@	c #721C24",
"&@	c #805544",
"*@	c #5D3C35",
"=@	c #C00F22",
"-@	c #020E05",
";@	c #13241B",
">@	c #544631",
",@	c #4F412E",
"'@	c #55372E",
")@	c #352524",
"!@	c #242D25",
"~@	c #468546",
"{@	c #498D49",
"]@	c #478A48",
"^@	c #061A16",
"/@	c #409C43",
"                                        .                                       ",
"                                        . .                                     ",
"                                      + @ +                                     ",
"      #                         $ % & * = = = - ;                       #       ",
"                            > , ' ) ! ~ { ] ^ / ( _ :                   #       ",
"                    . .   < $ [ } | 1 ! 2 3 4 5 6 7 = 8                 #       ",
"                      $ 9 0 a b c d e f g h 5 ^ ] i f j k >             #       ",
"                    8 l m n o p | q e r s t 2 5 ] ] 6 u @ @ v           #       ",
"  . .               v w x y z A B C d D 1 E { F 2 G f u l ) H I         #       ",
"                  J K x y y y L _ b C C q q 1 7 M N 7 O & P ] { Q       #       ",
"                R J K S y T T x U V W ' X d d Y Z M t f ` t G ^  .I     #       ",
"                ..+.o @.#.L $.%.y z &.&.*.Y Y =.-.;.M F ! t t G ] >.    #       ",
"                ,.'.).!.!.9 U x $.~.T T {.; < ].^./.Z M ! (.N P 5 >.    .   ..  ",
"              ,._.:.<.[.}.|.A 0 1.2.#.x 3.l 4.5.5.6.@ a 7 ! ~ P 3 >.    # R     ",
"          . ,.7.'.:.<.[.=.8.9.0.a.u A $.@.9 b.c.d.-.@ @ e.7 ~ P f *     # .   R ",
"      # . f.g.'.:.h.8 l i.j.k.l.m.n.2.o.3.9 b.p.q.r.a @ l ( 7 7 s._.    #     ..",
"      t.f._.u.v.w.8 9 b.c.x.1.y.z.n.o ~.A.a B.C.D.'   w.E.< O e.  u._.f.# ..  R ",
"      F._.u.u.G.E.8 H.j.5.I.6.J.K.L.A z 3.r.M.N.O.-.1.  P.Q.R.E.G.u.u._.F...    ",
"      S.T.U.v.G.R.+.> ( M.V.d.i.W.d.x.0 X.Y.D.B k.z #.Z.`. +.+++G.v.U.T.S.    ..",
"      @+#+U.$+G.R.8 8 6.%+-.&+Y.N.C.W.%+M.D.M.' @ 3.w Z.U.*+=+R.G.$+U.-+@+    R ",
"      ;+-+U.>+w.R._ *.^./.; ; X.,+'+M.O.Y.=.)+, l l <   !+h.~+R.w.>+U.T.;+      ",
"      ;+T.U.*+G.R.k %+W.%+, {+]+^+9.9.r.r.k.+./+(+W   _+ +=+.+:+G.*+>+T.;+      ",
"      ;+T.>+v.:.<+.+[+}.X.(+}+|+1+2+, a + > (+3+}+]+  =+.+++.+h.:.w.U.-+;+..    ",
"    ..;+#+u.u.4+5+h.  l 6+}+7+8+|+|+(+_ 9+l (+3+0+]+  R.a+++<+w.4+u.u.#+;+      ",
"      @+7.b+4+G.G.w.h.  @ {+|+c+0+(+O -.%+[ )+d+7+(++   e+f+w.g+h+U.7.g.@+      ",
"      i+j+T.U.G.h+w.h+  k+X.l+}+8+- 9+|.O.|.9+1+d+/ k.m+n+G.n+G.w.U.#+j+i+      ",
"      i+j+`.n+G.G.n+h+  o+p+X.{+/+2+' %+B.%+^+; , o+p+q+h+h+G.w.h+n+>+j+i+      ",
"      i+j+U.h+G.h+h+h+  r+s+o+[+6+t+u+I.W.u+( 9.v+s+w+x+y+h+h+h+h+h+`.z+i+      ",
"      @+f.U.`.h+G.*+y+  2+m+A+B+C+x.p.d.p.I.^+[+A+^ y.D+E+y+h+h+G.U.4+,.@+      ",
"      ;+F+G+U.U.h+H+E+I+a.]+J+K+C+8.p.d.L+I.9 6+J+6+  M+I+E+$+h+>+u.U.F+;+      ",
"      ;+-+U.N+G+>+O+v.P+Q+  +.1+u X.j.L+R+i.r., 2+l.M+Q+P+v.O+>+u.U.U.T.;+      ",
"      ;+T.-+U.-+O+v.:+M+M+S+T+9+l @ 9 I.L+j.9 +   U+=+M+M+:+g+O+-+U.'.#+;+      ",
"      ;+_.7.-+f.g+V+V+W+X+Y+T+Z+`+1.; _ H.H.l + L.n+ @R.W+V+~+g+,.f.7.#+@+      ",
"      ;+#+T..@!+<.+@ @+@w.H+  @@`+#@p p r.$@%@@@L.`.H+w.+@ @+@+@H+&@7.#+@+      ",
"  .   @+*@.@G.v.:.:.:.:.>+u.,.  9+'+q q X =@=@Z+Z.,.u.>+5+:.!+:.w.w.F+*@@+      ",
"  . . -@;@>@,@,@,@,@F.,@,@'@)@;@J+k+M.M.#@%@Z+J.  )@'@>@,@,@,@,@,@,@>@!@-@      ",
"      ~@{@{@{@{@]@{@{@{@{@{@..{@.   + ; $ ^@  ..{@..{@{@{@]@]@{@{@{@{@..~@      ",
"                            . .   .                                             ",
"                                              /@          R               R .   ",
"                                                          .             . . .   "};
