/* XPM */
static char * tent_right_xpm[] = {
"40 40 300 2",
"  	c #489848",
". 	c #499648",
"+ 	c #449644",
"@ 	c #163538",
"# 	c #475A24",
"$ 	c #3B531D",
"% 	c #254825",
"& 	c #0D2C2C",
"* 	c #272626",
"= 	c #70B120",
"- 	c #84C722",
"; 	c #569911",
"> 	c #52940E",
", 	c #538A0F",
"' 	c #434C1C",
") 	c #172B34",
"! 	c #073735",
"~ 	c #426517",
"{ 	c #568615",
"] 	c #699522",
"^ 	c #75B71D",
"/ 	c #89D321",
"( 	c #7CC021",
"_ 	c #57A30B",
": 	c #849009",
"< 	c #AD8707",
"[ 	c #D2730E",
"} 	c #864A17",
"| 	c #26352D",
"1 	c #04232C",
"2 	c #123244",
"3 	c #393045",
"4 	c #65A817",
"5 	c #7BC71B",
"6 	c #7AB921",
"7 	c #54A617",
"8 	c #309715",
"9 	c #FB7800",
"0 	c #F88800",
"a 	c #C46D1B",
"b 	c #2A2816",
"c 	c #36253B",
"d 	c #482C44",
"e 	c #10322C",
"f 	c #242B2C",
"g 	c #251E26",
"h 	c #478B0E",
"i 	c #469211",
"j 	c #985602",
"k 	c #382B28",
"l 	c #944485",
"m 	c #C85698",
"n 	c #4B3538",
"o 	c #08281E",
"p 	c #536A22",
"q 	c #364722",
"r 	c #6EB518",
"s 	c #AF7C04",
"t 	c #EA8B03",
"u 	c #663819",
"v 	c #934574",
"w 	c #E960B3",
"x 	c #F764BB",
"y 	c #B04980",
"z 	c #559312",
"A 	c #4D8B11",
"B 	c #447C11",
"C 	c #669014",
"D 	c #C88604",
"E 	c #EE6C02",
"F 	c #DD6903",
"G 	c #BE6504",
"H 	c #483424",
"I 	c #723B74",
"J 	c #FC68C3",
"K 	c #9C3F6D",
"L 	c #4B6A26",
"M 	c #53361F",
"N 	c #472925",
"O 	c #994975",
"P 	c #D45AA8",
"Q 	c #F76BCA",
"R 	c #84D01E",
"S 	c #559C0D",
"T 	c #3F621F",
"U 	c #665243",
"V 	c #884D34",
"W 	c #9F5511",
"X 	c #895219",
"Y 	c #6B3C55",
"Z 	c #57326B",
"` 	c #AD4D8C",
" .	c #8E4474",
"..	c #57374A",
"+.	c #608725",
"@.	c #2C4E19",
"#.	c #34372C",
"$.	c #C67D4F",
"%.	c #E79454",
"&.	c #373A34",
"*.	c #0C1618",
"=.	c #D95BA6",
"-.	c #162217",
";.	c #6C543E",
">.	c #653D39",
",.	c #499447",
"'.	c #FDB67A",
").	c #B5835A",
"!.	c #683B55",
"~.	c #3D2934",
"{.	c #432139",
"].	c #744716",
"^.	c #B09062",
"/.	c #8C6D4B",
"(.	c #693337",
"_.	c #479B49",
":.	c #2B2A2A",
"<.	c #07172A",
"[.	c #AB7046",
"}.	c #F7A663",
"|.	c #EEB072",
"1.	c #7E563F",
"2.	c #495B48",
"3.	c #364A4A",
"4.	c #A25F2D",
"5.	c #B56E39",
"6.	c #6B4D3C",
"7.	c #673638",
"8.	c #644339",
"9.	c #653536",
"0.	c #1B2525",
"a.	c #E98430",
"b.	c #6A6933",
"c.	c #873A66",
"d.	c #B8CBDA",
"e.	c #B1B2AF",
"f.	c #A46C38",
"g.	c #DD9259",
"h.	c #AC8C5F",
"i.	c #634C3A",
"j.	c #378633",
"k.	c #8D714D",
"l.	c #947651",
"m.	c #9A7A51",
"n.	c #CB8347",
"o.	c #594225",
"p.	c #912E6C",
"q.	c #DEEDED",
"r.	c #273535",
"s.	c #88593B",
"t.	c #CC9262",
"u.	c #6F522E",
"v.	c #93744D",
"w.	c #563C29",
"x.	c #9A784F",
"y.	c #AE8D5F",
"z.	c #B89768",
"A.	c #C09F6C",
"B.	c #836748",
"C.	c #B6651C",
"D.	c #CFC3AF",
"E.	c #755844",
"F.	c #39171A",
"G.	c #6D3C3A",
"H.	c #725B41",
"I.	c #B59566",
"J.	c #BC9C6B",
"K.	c #B08E60",
"L.	c #7A5D43",
"M.	c #826647",
"N.	c #4C2F19",
"O.	c #945724",
"P.	c #795851",
"Q.	c #E28C49",
"R.	c #AE6323",
"S.	c #543829",
"T.	c #1C1B14",
"U.	c #713C3B",
"V.	c #BD9D6B",
"W.	c #A07F53",
"X.	c #6F5740",
"Y.	c #554550",
"Z.	c #F79747",
"`.	c #9F6442",
" +	c #714825",
".+	c #484A49",
"++	c #6D453B",
"@+	c #201B15",
"#+	c #7D6245",
"$+	c #AC8D60",
"%+	c #856B4A",
"&+	c #AD5C1B",
"*+	c #050F22",
"=+	c #554935",
"-+	c #B99968",
";+	c #BD9D6C",
">+	c #A38257",
",+	c #305543",
"'+	c #348A65",
")+	c #2A7459",
"!+	c #3E4B38",
"~+	c #216554",
"{+	c #CF7A34",
"]+	c #191B28",
"^+	c #B89564",
"/+	c #AB8D61",
"(+	c #3E8A5C",
"_+	c #41CD81",
":+	c #3BB06E",
"<+	c #1B544B",
"[+	c #1C4C46",
"}+	c #3BBB73",
"|+	c #4A4838",
"1+	c #72583F",
"2+	c #936F4C",
"3+	c #A48559",
"4+	c #38AA5C",
"5+	c #43E47C",
"6+	c #39946A",
"7+	c #261C1F",
"8+	c #3EDA72",
"9+	c #316C56",
"0+	c #683538",
"a+	c #4B422D",
"b+	c #295645",
"c+	c #B19262",
"d+	c #0E1910",
"e+	c #31342A",
"f+	c #5C663C",
"g+	c #4E9656",
"h+	c #228352",
"i+	c #936832",
"j+	c #562223",
"k+	c #192829",
"l+	c #6C4A14",
"m+	c #967A52",
"n+	c #E1C73A",
"o+	c #8F5C26",
"p+	c #1C6D5B",
"q+	c #A98F2F",
"r+	c #D6B836",
"s+	c #644A35",
"t+	c #B1CC57",
"u+	c #BBB442",
"v+	c #BF7A3F",
"w+	c #4F5B37",
"x+	c #85A955",
"y+	c #293128",
"z+	c #8E7D5E",
"A+	c #B9B38B",
"B+	c #BAAE3B",
"C+	c #F69E56",
"D+	c #FDA458",
"E+	c #CECD47",
"F+	c #88BE62",
"G+	c #73443C",
"H+	c #6E5A40",
"I+	c #826846",
"J+	c #8E7F61",
"K+	c #BBB790",
"L+	c #57915B",
"M+	c #34513D",
"N+	c #56A163",
"O+	c #48714D",
"P+	c #B7A97F",
"Q+	c #BDA06F",
"R+	c #FFA95A",
"S+	c #00403F",
"T+	c #BBAE84",
"U+	c #B49262",
"V+	c #BDA678",
"W+	c #B29668",
"X+	c #AC8A5C",
"Y+	c #821823",
"Z+	c #91181C",
"`+	c #371D20",
" @	c #794D42",
".@	c #B28F5F",
"+@	c #5F1824",
"@@	c #541C1F",
"#@	c #B3241A",
"$@	c #781D24",
"%@	c #805544",
"&@	c #5D3C35",
"*@	c #3E2F2D",
"=@	c #AE1721",
"-@	c #C00D21",
";@	c #020E05",
">@	c #13241B",
",@	c #544631",
"'@	c #4F412E",
")@	c #55372E",
"!@	c #352524",
"~@	c #263028",
"{@	c #984913",
"]@	c #242D25",
"^@	c #468546",
"/@	c #498D49",
"(@	c #478A48",
"_@	c #409C43",
"                                        .                                       ",
"                                        . .                                     ",
"                                                                                ",
"      +                         @ # # # $ $ % &                         +       ",
"                              * # = - = ; > , ' ) !                     +       ",
"                    . .     ~ { ] ^ / ( _ : < [ } | 1 &                 +       ",
"                      2 3 # 4 5 / 6 = 7 8 : 9 0 a b c d e               +       ",
"                    f g g ~ ^ - - 6 4 h i < 9 9 j k l m n o             +       ",
"  . .             p { ' g q 4 r 7 ; : s < t 9 j u v w x y d             +       ",
"                # ^ 5 z % $ A h B C D 9 E F G H I w x J J K             +       ",
"              L = - r h B z h % M [ 0 E u b N O P x x Q x O             +       ",
"              ] R r ; > S i T U V W j X Y Z I w Q Q `  . ...            +       ",
"              +.^ ; h > z @.#.$.%.&.*.3 P x w =.w =.U -.-.& ;.>.        .   ,.  ",
"              ] 5 ; S z $ o c $.'.).n c =.m !.~.{...V ].b ^./.(.>.      + _.    ",
"          .   L C S , ~ :.<.k [.}.|.1.c =.O -.2.3.* 4.5.k ^./.6.7.>.    + .   _.",
"      + . 8.9.6.q z ~ :.* 0.* } a.}.b.c =.c.&.d.e.n f.g.n   h./.i.(.8.  +     ,.",
"      j.8.(.;.k.  q % ) l.m.-.X a.n.o.3 x p.) q.d.r.s.'.t.u.  v.k.;.(.8.+ ,.  _.",
"      w.(.;.;.x.y.z.A.l.B.{.!.s.C.a ].n ` c.U D.e.E.5.}.t.U <.y.x.;.;.(.w.,.    ",
"      F.G.H.k.x.I.J.K.L.M.c.m Y N.C.a O.~.P.%.$.n.%.Q.R.S.@ ! z.x.k.H.G.F.    ,.",
"      T.U.H.B.x.I.V.W.X.M.Y.O d -.u a a ].f.Z.[ C.`.u. +E..+! I.x.B.H.++T.    _.",
"      @+++H.#+v.I.J.$+/.%+e 0.:.) |  +C.R.R.W &+X f *+=+%.[.0.I.v.#+H.G.@+      ",
"      @+G.H.W.x.I.-+;+$+>+>+-.,+'+)+!+N S.H N N.!+~+! H {+O.]+^+x.W.#+G.@+      ",
"      @+G.#+k././+-+-+J.;+V.| (+_+:+<+*+<.@ [+@ )+}+'+|+].M -+$+/.v.H.++@+,.    ",
"    ,.@+U.;.;.1+2+$+-+I.I.3+| 4+5+6+3.* 7+,+6+6+:+8+}+9+f   /+v.1+;.;.U.@+      ",
"      T.7.0+1+x.x.v.$+>+v.<.e 4+8+,+H  + +a+b+4+_+8+)+) ]+c+v.l.m.H.7.9.T.      ",
"      d+e+G.H.x.m.v.m.x.m.% f+g+h+* S.4.i+j+k+4+}+9+=+l+k x.m+x.v.H.U.e+d+      ",
"      d+e+L.m+x.x.m+m.m.M.i+n+b.*+k+o.o+o+M & '+p+) q+r+a+m.x.v.m.m+#+e+d+      ",
"      d+e+H.m.x.m.m.m.M.s+f+t+u+o+:.u.{+v+5.`.3.w+q+t+x+&.m.m.m.m.m.L.y+d+      ",
"      T.8.H.L.m.x.W.M.s+z+A+(+t+B+#.1.C+%.D+Q.N u.E+F+~+  M.m.m.x.H.1+>.T.      ",
"      @+G+H+H.H.m.I+s+J+A+K+&.L+g+f V C+%.D+%.S.M+N+O+  J+s+B.m.#+;.H.G+@+      ",
"      @+++H.X.H+#+i.k.P+K+P+Q+b+[+f f.D+R+Q.s.k S+<+  K+P+k.i.#+;.H.H.G.@+      ",
"      @+G.++H.++i.k.^+T+T+Q+U+>+]+f E.g.g.1.0.* k * ;+T+T+^+l.i.++H.6.U.@+      ",
"      @+(.7.++8.l.V.V.V+W+X+>+L.7+-.q |+.+) <.Y+Z+`+h.I.V+V.J.l.>.8.7.U.T.      ",
"      @+U.G. @%+^..@h..@v.I+#+9.N +@+@@@u l+} #@$@f I+v..@h..@.@I+%@7.U.T.      ",
"  .   T.&@ @x.k././././.#+;.>.*@j+=@-@#@F 9 F u ) >.;.#+2+/.%+/.v.v.G+&@T.      ",
"  . . ;@>@,@'@'@'@'@w.'@'@)@!@>@~@$@Y+$@{@{@X | >@!@)@,@'@'@'@'@'@'@,@]@;@      ",
"      ^@/@/@/@/@(@/@/@/@/@/@,./@.   & & 1 <.1 ,./@,./@/@/@(@(@/@/@/@/@,.^@      ",
"                            . .   .                                             ",
"                                              _@          _.              _..   ",
"                                                          .             . . .   "};
