/* XPM */
static char * tent_down_xpm[] = {
"40 40 281 2",
"  	c #489848",
". 	c #499648",
"+ 	c #4B8B46",
"@ 	c #498D49",
"# 	c #449644",
"$ 	c #409C43",
"% 	c #478A48",
"& 	c #5D3C35",
"* 	c #644339",
"= 	c #584932",
"- 	c #544631",
"; 	c #644535",
"> 	c #438A3F",
", 	c #44A144",
"' 	c #6D453B",
") 	c #8D714D",
"! 	c #72583F",
"~ 	c #6B4D3C",
"{ 	c #5F483A",
"] 	c #499447",
"^ 	c #45A24A",
"/ 	c #794D42",
"( 	c #A48559",
"_ 	c #42551B",
": 	c #35581A",
"< 	c #479B49",
"[ 	c #67523C",
"} 	c #967A52",
"| 	c #366616",
"1 	c #539A0E",
"2 	c #549411",
"3 	c #71B422",
"4 	c #6DBB22",
"5 	c #5EB11F",
"6 	c #2A2727",
"7 	c #634C3A",
"8 	c #73443C",
"9 	c #8E7351",
"0 	c #488B0F",
"a 	c #6EB11B",
"b 	c #A2A50F",
"c 	c #79BB1E",
"d 	c #549522",
"e 	c #558813",
"f 	c #6F5740",
"g 	c #673638",
"h 	c #856B4A",
"i 	c #463224",
"j 	c #7A9D07",
"k 	c #469412",
"l 	c #5DA916",
"m 	c #6A2D36",
"n 	c #1A1F2B",
"o 	c #E66705",
"p 	c #B78904",
"q 	c #6AA719",
"r 	c #462D25",
"s 	c #36301C",
"t 	c #271D24",
"u 	c #AC7552",
"v 	c #6B4E34",
"w 	c #A84A87",
"x 	c #653659",
"y 	c #0E2115",
"z 	c #442C0D",
"A 	c #9F6003",
"B 	c #DC8C01",
"C 	c #E59204",
"D 	c #12171D",
"E 	c #704F46",
"F 	c #F9AE72",
"G 	c #986A44",
"H 	c #311E34",
"I 	c #E760AF",
"J 	c #C8559B",
"K 	c #543944",
"L 	c #452D5D",
"M 	c #87472D",
"N 	c #BC5A05",
"O 	c #C25A03",
"P 	c #7E492A",
"Q 	c #5A5D33",
"R 	c #162419",
"S 	c #A27152",
"T 	c #F9A76C",
"U 	c #653D39",
"V 	c #654B46",
"W 	c #E89C68",
"X 	c #8B6941",
"Y 	c #2E2832",
"Z 	c #FF6ECF",
"` 	c #F764BB",
" .	c #793C69",
"..	c #8F4671",
"+.	c #0E2229",
"@.	c #D69161",
"#.	c #693337",
"$.	c #544238",
"%.	c #B76F33",
"&.	c #D98949",
"*.	c #FF70D6",
"=.	c #D95CAA",
"-.	c #A94C90",
";.	c #E99351",
">.	c #4D362C",
",.	c #A35611",
"'.	c #DA853A",
").	c #BA5193",
"!.	c #B94C8C",
"~.	c #BD8361",
"{.	c #653536",
"].	c #8C6D4B",
"^.	c #523B31",
"/.	c #B9651C",
"(.	c #784B19",
"_.	c #242125",
":.	c #192528",
"<.	c #3F2F42",
"[.	c #4C3523",
"}.	c #378633",
"|.	c #6C543E",
"1.	c #93744D",
"2.	c #B49364",
"3.	c #5B4126",
"4.	c #6F3A3E",
"5.	c #725525",
"6.	c #8C9082",
"7.	c #A5AEA6",
"8.	c #A3A99B",
"9.	c #744B25",
"0.	c #5D3110",
"a.	c #82BF64",
"b.	c #67381E",
"c.	c #563C29",
"d.	c #9A784F",
"e.	c #AE8D5F",
"f.	c #B89768",
"g.	c #C09F6C",
"h.	c #A45E1F",
"i.	c #6D3D05",
"j.	c #FFFDF4",
"k.	c #FFFFFF",
"l.	c #DDD1C6",
"m.	c #CA6613",
"n.	c #B59566",
"o.	c #39171A",
"p.	c #6D3C3A",
"q.	c #725B41",
"r.	c #BC9C6B",
"s.	c #B08E60",
"t.	c #7A5D43",
"u.	c #CA8348",
"v.	c #92A3B0",
"w.	c #493932",
"x.	c #D08B58",
"y.	c #91541D",
"z.	c #B99968",
"A.	c #1C1B14",
"B.	c #713C3B",
"C.	c #836748",
"D.	c #BD9D6B",
"E.	c #A07F53",
"F.	c #2A151D",
"G.	c #FFD3AC",
"H.	c #68696A",
"I.	c #0F0F0F",
"J.	c #CE8C5E",
"K.	c #FFC380",
"L.	c #E87A26",
"M.	c #BD9D6C",
"N.	c #201B15",
"O.	c #7D6245",
"P.	c #AC8D60",
"Q.	c #2F5848",
"R.	c #274538",
"S.	c #153134",
"T.	c #B96723",
"U.	c #F0914A",
"V.	c #905A39",
"W.	c #966231",
"X.	c #164139",
"Y.	c #2D7553",
"Z.	c #40D373",
"`.	c #3B956A",
" +	c #512B1C",
".+	c #E58D45",
"++	c #264A41",
"@+	c #36996A",
"#+	c #3FCA72",
"$+	c #30804B",
"%+	c #B89564",
"&+	c #AB8D61",
"*+	c #4B6431",
"=+	c #2D9D5E",
"-+	c #3BA672",
";+	c #237962",
">+	c #29463D",
",+	c #B1734E",
"'+	c #936F4C",
")+	c #885727",
"!+	c #36352C",
"~+	c #328E68",
"{+	c #683538",
"]+	c #3C2723",
"^+	c #905723",
"/+	c #383A34",
"(+	c #2A6351",
"_+	c #37A36C",
":+	c #451312",
"<+	c #315F4C",
"[+	c #3AB569",
"}+	c #9A7A51",
"|+	c #0E1910",
"1+	c #31342A",
"2+	c #1E5A3E",
"3+	c #41E476",
"4+	c #278168",
"5+	c #40DC71",
"6+	c #4E392F",
"7+	c #F09C56",
"8+	c #A16836",
"9+	c #184B44",
"0+	c #249274",
"a+	c #3CBA73",
"b+	c #30D977",
"c+	c #2EE87A",
"d+	c #A96E42",
"e+	c #293128",
"f+	c #535258",
"g+	c #4F7F4D",
"h+	c #8EB658",
"i+	c #4C7551",
"j+	c #71C55C",
"k+	c #87F162",
"l+	c #365245",
"m+	c #6E5A40",
"n+	c #FFE43C",
"o+	c #7B7132",
"p+	c #D5B435",
"q+	c #FFF944",
"r+	c #FEE841",
"s+	c #4D8753",
"t+	c #76B965",
"u+	c #98B351",
"v+	c #FFD737",
"w+	c #BBAE84",
"x+	c #5D121A",
"y+	c #05605B",
"z+	c #75A456",
"A+	c #DAE252",
"B+	c #BECC50",
"C+	c #B6C44F",
"D+	c #0B6960",
"E+	c #947651",
"F+	c #BDA678",
"G+	c #B29668",
"H+	c #B81820",
"I+	c #671222",
"J+	c #BD2830",
"K+	c #B09062",
"L+	c #B28F5F",
"M+	c #AC8C5F",
"N+	c #826846",
"O+	c #A54310",
"P+	c #AA1C17",
"Q+	c #562D30",
"R+	c #A45B22",
"S+	c #805544",
"T+	c #C1261C",
"U+	c #345634",
"V+	c #242D25",
"W+	c #252725",
"X+	c #020E05",
"Y+	c #13241B",
"Z+	c #4F412E",
"`+	c #55372E",
" @	c #352524",
".@	c #263028",
"+@	c #294929",
"@@	c #2B502B",
"#@	c #468546",
"                                        .                                       ",
"                                        . .                                     ",
"                                    + @ + +                                     ",
"      #                       $ % & * = - ; = > $                       #       ",
"                            , + ; ' ) ! ! ) ~ { @                       #       ",
"                    . . ] ^ + { / ( _ : _ _ _ / *     .                 #       ",
"                      < ^ + [ ' } | 1 2 3 4 5 | 6 { ] .                 #       ",
"                      ^ + 7 8 9 | 0 1 a b 4 c 4 d e f . <               #       ",
"  . .               , + * g h i b j k l 4 4 5 b b e | ;                 #       ",
"                  < ] * m ~ n i o p k 0 q c k p o r : e s t             #       ",
"                < ] u v ~ w x y z A B B C C B A z D | 1 6 E u           #       ",
"                ] E F G H I J K L M N O N N N P L x Q | R S T v         #       ",
"                U V W X Y J Z I `  .D 6 6 6 R ..` ` ..+.D S @.V         .   ]   ",
"              U #.$.%.&.u V w *.Z =.w w -.-.w =.Z *. .R S ;.%.$.U       # <     ",
"          . U g ~ >.,.'.u $. .).w !.J J J J J !.w )...V ~.'.,.i g U     # .   < ",
"      # . * {.~ ].^./.(.L =..._.6 t 6 Y Y Y t 6 t :...=.<.(./.[.7 #.*   #     ] ",
"      }.* #.|.) 1.2.3.(.P  .4.5.6.7.8.9.0.5.8.7.a.4.4. .9.(.b.1.) |.#.* # ]   < ",
"      c.#.|.|.d.e.f.g.v h.z i.&.j.k.l.&.m.&.l.j.j.&.(.z h.9.n.e.d.|.|.#.c.]     ",
"      o.p.q.) d.n.r.s.t.[.h.O u.j.v.w.x.T x.$.v.j.u.N y.i s.z.f.d.) q.p.o.    ] ",
"      A.B.q.C.d.n.D.E.f F.b.,.'.G.H.I.J.K.J.I.H.G.L.y.b.F.E.M.n.d.C.q.' A.    < ",
"      N.' q.O.1.n.r.P.Q.R.S.3.T.U.V.$.@.F @.$.W.U.T.3.S.R.X.r.n.1.O.q.p.N.      ",
"      N.p.q.E.d.n.z.M.Y.Z.`.R. +T..+W W F F W .+T. +++@+#+$+z.%+d.E.O.p.N.      ",
"      N.p.O.) ].&+z.z.*+=+-+;+>+0.M u &.U.&.,+M b.>+;+-+=+*+v P.].1.q.' N.]     ",
"    ] N.B.|.|.! '+P.)+b.Y Y.-+`.>++.!+y./.y.6 +.R.~+-+Y.6 b.)+r ! |.|.B.N.      ",
"      A.g {+! d.d.]+9.^+9./+(+_+#+_+(+]+:+s <+_+[+@+(+/+9.^+5.r }+q.g {.A.      ",
"      |+1+p.q.d.}+r W.W.[.F.++_+#+#+[+Y.2+Y.[+3+3+-+>+F.[.W.W.>.1.q.B.1+|+      ",
"      |+1+t.} d.d.^.&.G _._.<+`.4+[+5+3+3+5+#+5+#+-+Q._.:.G &.V }+} O.1+|+      ",
"      |+1+q.}+d.}+6+u.7+8+]+9+0+4+@+a+b+c+b+a+@+0+0+X.]+d+7+u.>.}+}+t.e+|+      ",
"      A.* q.t.}+d.>.&.;.W.f+g+h+h+i+(+j+k+j+(+i+h+h+i+l+G U.&.i d.q.! U A.      ",
"      N.8 m+q.q.}+w.&.V.S.;+h+n+n+o+!+p+q+p+!+o+r+r+h+;+S.V.&.i O.|.q.8 N.      ",
"      N.' q.f m+O.7 ) V +.X.s+a.t+u+p+v+n+v+p+u+t+a.s+X.:.>.7 O.|.q.q.p.N.      ",
"      N.p.' q.' 7 ) %+w+]+x+/+y+y+z+A+B+C+C+A+z+y+D+/+x+w.%+E+7 ' q.~ B.N.      ",
"      N.#.g ' * E+D.D.F+G+H+I+6 t <+@+`.`.`.`.<+_.:.I+J+F+D.r.E+U * g B.A.      ",
"      N.B.p./ h K+L+M+L+1.N+O+O P+Q+9+++++>+9+Q+P+O R+1.L+M+L+L+N+S+g B.A.      ",
"  .   A.& / d.) ].].].].O.|.U o T+I+e+U+U+V+W+I+T+L.|.O.'+].h ].1.1.8 & A.      ",
"  . . X+Y+- Z+Z+Z+Z+c.Z+Z+`+ @Y+.@+@@@^ , @@+@V+Y+ @`+- Z+Z+Z+Z+Z+Z+- V+X+      ",
"      #@@ @ @ @ % @ @ @ @ @ ] @ .   . .       ] @ ] @ @ @ % % @ @ @ @ ] #@      ",
"                            . .   .                                             ",
"                                              $           <               < .   ",
"                                                          .             . . .   "};
