/* XPM */
static char * tent_up_xpm[] = {
"40 40 296 2",
"  	c #489848",
". 	c #499648",
"+ 	c #4B8B46",
"@ 	c #498D49",
"# 	c #449644",
"$ 	c #409C43",
"% 	c #478A48",
"& 	c #5D3C35",
"* 	c #644339",
"= 	c #363325",
"- 	c #2F3324",
"; 	c #352C25",
"> 	c #0A3839",
", 	c #44A144",
"' 	c #1A1630",
") 	c #242A2A",
"! 	c #427116",
"~ 	c #4C8512",
"{ 	c #447414",
"] 	c #467C13",
"^ 	c #467A15",
"/ 	c #283927",
"( 	c #499447",
"_ 	c #45A24A",
": 	c #173833",
"< 	c #3A4A1C",
"[ 	c #39551B",
"} 	c #579812",
"| 	c #6BB415",
"1 	c #65AB15",
"2 	c #597B20",
"3 	c #4B5329",
"4 	c #479B49",
"5 	c #323A22",
"6 	c #49890D",
"7 	c #549B0D",
"8 	c #72B51C",
"9 	c #81C124",
"0 	c #7BBB22",
"a 	c #75BC18",
"b 	c #53970F",
"c 	c #1C2E2C",
"d 	c #8F694B",
"e 	c #AC7752",
"f 	c #293531",
"g 	c #161826",
"h 	c #64AD08",
"i 	c #5CA60E",
"j 	c #61A414",
"k 	c #5EA312",
"l 	c #142C2D",
"m 	c #2B2425",
"n 	c #C9865E",
"o 	c #F1A26B",
"p 	c #452725",
"q 	c #0C112A",
"r 	c #1E3527",
"s 	c #6EB319",
"t 	c #3C6618",
"u 	c #4E920C",
"v 	c #3B7517",
"w 	c #231B1D",
"x 	c #473528",
"y 	c #292928",
"z 	c #B37856",
"A 	c #D99260",
"B 	c #3B342C",
"C 	c #77B720",
"D 	c #2B2A1E",
"E 	c #9C622D",
"F 	c #B36E36",
"G 	c #1C242A",
"H 	c #784D19",
"I 	c #C96507",
"J 	c #344421",
"K 	c #4B8911",
"L 	c #3E8400",
"M 	c #326C0D",
"N 	c #2D4121",
"O 	c #B97410",
"P 	c #8C5A35",
"Q 	c #272926",
"R 	c #8B5523",
"S 	c #A75A1A",
"T 	c #543A25",
"U 	c #A4510C",
"V 	c #704613",
"W 	c #86B859",
"X 	c #6E874C",
"Y 	c #232426",
"Z 	c #653D39",
"` 	c #845427",
" .	c #CF731C",
"..	c #E77711",
"+.	c #9B581A",
"@.	c #E4F0D2",
"#.	c #D1E2C5",
"$.	c #558C1A",
"%.	c #2F4611",
"&.	c #261B28",
"*.	c #A76525",
"=.	c #693337",
"-.	c #0B171B",
";.	c #6A4726",
">.	c #B75B0E",
",.	c #4C4F1B",
"'.	c #AED771",
").	c #9ECC65",
"!.	c #1C421B",
"~.	c #673638",
"{.	c #6B4D3C",
"].	c #905B28",
"^.	c #7A483B",
"/.	c #53264C",
"(.	c #502F30",
"_.	c #D46C47",
":.	c #CD6B32",
"<.	c #7B4E22",
"[.	c #653536",
"}.	c #8C6D4B",
"|.	c #AC8D60",
"1.	c #B89768",
"2.	c #352826",
"3.	c #A34D7B",
"4.	c #CD569E",
"5.	c #142717",
"6.	c #69A61A",
"7.	c #16430A",
"8.	c #ED63AC",
"9.	c #8E4968",
"0.	c #1B2625",
"a.	c #378633",
"b.	c #6C543E",
"c.	c #8D714D",
"d.	c #93744D",
"e.	c #B49364",
"f.	c #BC9C6C",
"g.	c #AB8D61",
"h.	c #947651",
"i.	c #B04F89",
"j.	c #FF6BCB",
"k.	c #793B6B",
"l.	c #609B1B",
"m.	c #AC4A87",
"n.	c #8A3668",
"o.	c #38314A",
"p.	c #563C29",
"q.	c #9A784F",
"r.	c #AE8D5F",
"s.	c #C09F6C",
"t.	c #836748",
"u.	c #7C4061",
"v.	c #DC5CA7",
"w.	c #FA64BC",
"x.	c #FF6DD2",
"y.	c #743A5C",
"z.	c #7ECF19",
"A.	c #5B8427",
"B.	c #B59566",
"C.	c #39171A",
"D.	c #6D3C3A",
"E.	c #725B41",
"F.	c #BC9C6B",
"G.	c #B08E60",
"H.	c #7A5D43",
"I.	c #826647",
"J.	c #60394F",
"K.	c #EB61B5",
"L.	c #669223",
"M.	c #382A35",
"N.	c #1C1B14",
"O.	c #713C3B",
"P.	c #BD9D6B",
"Q.	c #A07F53",
"R.	c #594128",
"S.	c #312B19",
"T.	c #6D453B",
"U.	c #201B15",
"V.	c #7D6245",
"W.	c #123717",
"X.	c #8B5A28",
"Y.	c #7E5227",
"Z.	c #583A22",
"`.	c #246756",
" +	c #38B96C",
".+	c #3BB35D",
"++	c #54182C",
"@+	c #334737",
"#+	c #33815D",
"$+	c #22463E",
"%+	c #46261E",
"&+	c #112832",
"*+	c #2B775C",
"=+	c #3CCB71",
"-+	c #3DC36E",
";+	c #268446",
">+	c #1D6935",
",+	c #33794F",
"'+	c #2D6949",
")+	c #3B956A",
"!+	c #72583F",
"~+	c #936F4C",
"{+	c #368967",
"]+	c #389369",
"^+	c #3FD270",
"/+	c #43EE76",
"(+	c #3FE171",
"_+	c #40D571",
":+	c #683538",
"<+	c #A6832A",
"[+	c #C8BE41",
"}+	c #19856F",
"|+	c #42E474",
"1+	c #41DD72",
"2+	c #258A6C",
"3+	c #265448",
"4+	c #9A7A51",
"5+	c #0E1910",
"6+	c #31342A",
"7+	c #C7D753",
"8+	c #A3BC52",
"9+	c #61A361",
"0+	c #1D9771",
"a+	c #2FA671",
"b+	c #28956F",
"c+	c #77B665",
"d+	c #7EA658",
"e+	c #967A52",
"f+	c #104D49",
"g+	c #4FA86A",
"h+	c #D9D145",
"i+	c #AABC4F",
"j+	c #CEAF35",
"k+	c #56381E",
"l+	c #FADC3E",
"m+	c #85A857",
"n+	c #9CCB5F",
"o+	c #588B56",
"p+	c #293128",
"q+	c #644A35",
"r+	c #8E7D5E",
"s+	c #B9B38B",
"t+	c #75AC5E",
"u+	c #D0D349",
"v+	c #C9CE4B",
"w+	c #B2C250",
"x+	c #73443C",
"y+	c #6E5A40",
"z+	c #826846",
"A+	c #8E7F61",
"B+	c #BBB790",
"C+	c #E5D442",
"D+	c #6F5740",
"E+	c #634C3A",
"F+	c #B7A97F",
"G+	c #1A463C",
"H+	c #B89564",
"I+	c #BBAE84",
"J+	c #BDA06F",
"K+	c #58181F",
"L+	c #630D18",
"M+	c #562225",
"N+	c #37654A",
"O+	c #1C6E5D",
"P+	c #482835",
"Q+	c #BDA678",
"R+	c #B29668",
"S+	c #AC8A5C",
"T+	c #AD1A21",
"U+	c #DA151F",
"V+	c #8A1D22",
"W+	c #C11820",
"X+	c #661F22",
"Y+	c #794D42",
"Z+	c #856B4A",
"`+	c #B09062",
" @	c #B28F5F",
".@	c #AC8C5F",
"+@	c #3D1E21",
"@@	c #0F2F2E",
"#@	c #805544",
"$@	c #3E2F2D",
"%@	c #345634",
"&@	c #242D25",
"*@	c #252725",
"=@	c #1D2D25",
"-@	c #020E05",
";@	c #13241B",
">@	c #544631",
",@	c #4F412E",
"'@	c #55372E",
")@	c #352524",
"!@	c #263028",
"~@	c #294929",
"{@	c #2B502B",
"]@	c #468546",
"                                        .                                       ",
"                                        . .                                     ",
"                                    + @ + +                                     ",
"      #                       $ % & * = - - ; - >                       #       ",
"                            , + ' ) ! ~ { { ] ^ / '                     #       ",
"                    . . ( _ : < < [ } | 1 1 | 1 2 3 [ /                 #       ",
"                      4 _ + 5 6 7 } 8 9 0 0 0 8 a 8 b <                 #       ",
"                  c d e f g - ~ h 8 0 9 0 1 i j k k b 5 g l d e f       #       ",
"  . .             m n o p q r ~ s 0 8 s j { [ t ~ u u v r w n o x       #       ",
"                  y z A B g 5 ] | C } u ~ 5 ' - { 7 u i v D e A B       #       ",
"                4 y E F G H I 5 v k J [ K { [ t L M N O O y P F =       #       ",
"                ( Q R S T U I V [ t 5 ! j 1 1 j W X / U U Y H S ;       #       ",
"                Z y `  .O T x ..+.l { 1 C 0 | 0 @.#.$.%.&.Y R *.;       .   (   ",
"              Z =.m R  ...T -.;.>.>.,.v | k 1 0 '.).7 !.m H I *.;       # 4     ",
"          . Z ~.{.c ;.S ].^./.q H I p / ] 6 j 0 a h 7 !.(._.:.<.f Z     # .   4 ",
"      # . * [.{.}.|.1.2.y 3.4.f 5.m m ) - { 6.a 0 | 7 7./.8.9.0.> =.*   #     ( ",
"      a.* =.b.c.d.e.f.g.h.i.j.i.9.k.y -.y { k j a l.[ 9.m.n.o.d.c.b.=.* # (   4 ",
"      p.=.b.b.q.r.1.s.h.t.u.v.w.x.8.y.&.- ^ b 6 z.A.&.m.i.0.B.r.q.b.b.=.p.(     ",
"      C.D.E.c.q.B.F.G.H.I.r.J.v.j.w.K.k.5.] 7 u 8 L.Q M.M.0.0.1.q.c.E.D.C.    ( ",
"      N.O.E.t.q.B.P.Q.r R.S.Y y.n.n.j.K.9.3 M 7 z.L.&.-.D R.;.x : t.E.T.N.    4 ",
"      U.T.E.V.d.B.F.|.T ].;.G c W.f i.K.4./.W.~ s A.f G B X.*.Y.; V.E.D.U.      ",
"      U.D.E.Q.q.B.) R.` ].Z.c `. +.+o.++/.&.w D S.@+#+$+p ` E Y.; Q.V.D.U.      ",
"      U.D.V.c.}.g.y ;.*.E %+&+*+=+-+;+>+>+,+,+,+'+*+)+$+%+X.` |.}.d.E.T.U.(     ",
"    ( U.O.b.b.!+~+y R.X.R R.@+{+{+]+^+/+(+(+(+(+/+_+]+$+B <.T d.!+b.b.O.U.      ",
"      N.~.:+!+q.q.y y y 2.<+[+)+}+)+^+(+|+1+1+1+/+_+]+2+3+B ) h.4+E.~.[.N.      ",
"      5+6+D.E.q.4+m T T w X 7+8+9+0+a+ +-+_+|+1+-+b+{+c+d+Y e+q.d.E.O.6+5+      ",
"      5+6+H.e+q.q.y R S 2.f+g+h+i+{+{+{+]+-+|+_+)+2+#+7+j+- q.d.4+e+V.6+5+      ",
"      5+6+E.4+q.4+> B k+w `.g+9+i+h+l+m+}+0+0+b+n+l+h+n+o+2.4+4+4+4+H.p+5+      ",
"      N.* E.H.4+q.Q.I.q+r+s+*+2+t+u+v+8+m+m+d+m+w+7+v+o+f+I.4+4+q.E.!+Z N.      ",
"      U.x+y+E.E.4+z+q+A+s+B+B *+)+]+2+W l+C+l+C+t+2+{+@+0.q+t.4+V.b.E.x+U.      ",
"      U.T.E.D+y+V.E+c.F+B+F+m G+G+f+2+g+c+W n+c+'+> f+Y G c.E+V.b.E.E.D.U.      ",
"      U.D.T.E.T.E+c.H+I+I+J+2.K+L+M+N+*+`.O+O+`.P+L+K+%+l H+h.E+T.E.{.O.U.      ",
"      U.=.~.T.* h.P.P.Q+R+S+p T+U+T+p l Q y ) y V+U+W+X+Q+P.F.h.Z * ~.O.N.      ",
"      U.O.D.Y+Z+`+ @.@ @d.z+V.[.V+X++@g @@> l &.X+V+X+-  @.@ @ @z+#@~.O.N.      ",
"  .   N.& Y+q.c.}.}.}.}.V.b.Z $@@@@@c %@%@&@*@=@l @@b.V.~+}.Z+}.d.d.x+& N.      ",
"  . . -@;@>@,@,@,@,@p.,@,@'@)@;@!@~@{@_ , {@~@&@;@)@'@>@,@,@,@,@,@,@>@&@-@      ",
"      ]@@ @ @ @ % @ @ @ @ @ ( @ .   . .       ( @ ( @ @ @ % % @ @ @ @ ( ]@      ",
"                            . .   .                                             ",
"                                              $           4               4 .   ",
"                                                          .             . . .   "};
